# xmcd
#
# Track frame offsets: 
#        187
#        20722
#        58532
#        80372
#        96759
#        113914
#        137529
#        156964
#
# Disc length: 2821 seconds
#
# Revision: 0
# Processed by: cddbd v1.5.2PL0 Copyright (c) Steve Scherf et al.
# Submitted via: ExactAudioCopy v0.99pb4
#
DISCID=600b0308
DTITLE=Booker T. and Priscilla - Home Grown
DYEAR=1972
DGENRE=Soul
TTITLE0=Save Us from Ourselves
TTITLE1=Born Under a Bad Sign
TTITLE2=Maggie's Farm
TTITLE3=Muddy Road
TTITLE4=Don't Think Twice, It's All Right
TTITLE5=Color Your Mama
TTITLE6=Sequence
TTITLE7=Who Killed Cock Robin
EXTD=
EXTT0=
EXTT1=
EXTT2=
EXTT3=
EXTT4=
EXTT5=
EXTT6=
EXTT7=
PLAYORDER=
